<?xml version="1.0" encoding="utf-8"?>
<!-- Generator: Adobe Illustrator 25.4.1, SVG Export Plug-In . SVG Version: 6.00 Build 0)  -->
<svg version="1.1" id="Calque_1" xmlns="http://www.w3.org/2000/svg" xmlns:xlink="http://www.w3.org/1999/xlink" x="0px" y="0px"
	 viewBox="0 0 40 40" style="enable-background:new 0 0 40 40;" xml:space="preserve">
<style type="text/css">
	.st0{fill:#FF6161;}
</style>
<g>
	<rect x="11.89" y="29.74" class="st0" width="6.48" height="3.23"/>
	<rect x="21.64" y="29.74" class="st0" width="6.48" height="3.23"/>
	<path class="st0" d="M34.6,20v-3.25h-3.24V13.5h-3.23v-3.23h3.23V7.03h-3.25v3.23h-3.24v3.24h-9.75v-3.24h-3.23V7.02H8.65v3.25
		h3.23v3.24H8.63v3.25H5.38v3.25H2.15v9.72H5.4v-6.47h3.24v6.48h3.24v-3.23h16.24v3.23h3.25v-6.48h3.24v6.47h3.23V20H34.6z
		 M15.12,19.99H11.9v-3.22h3.22V19.99z M28.11,19.99h-3.23v-3.22h3.23V19.99z"/>
</g>
</svg>
