<?xml version="1.0" encoding="utf-8"?>
<!-- Generator: Adobe Illustrator 25.4.1, SVG Export Plug-In . SVG Version: 6.00 Build 0)  -->
<svg version="1.1" id="Calque_1" xmlns="http://www.w3.org/2000/svg" xmlns:xlink="http://www.w3.org/1999/xlink" x="0px" y="0px"
	 viewBox="0 0 40 40" style="enable-background:new 0 0 40 40;" xml:space="preserve">
<style type="text/css">
	.st0{fill:#FFFFFF;}
</style>
<g>
	<path class="st0" d="M37.37,31.3c-11.6,0-23.14,0-34.74,0c0-4.13,0-8.24,0-12.49c0.68,0,1.4,0,2.18,0c0-0.95,0-1.76,0-2.68
		c3.54,0,7,0,10.59,0c0-1.58,0-3.07,0-4.66c1.08,0,2.03,0,3.08,0c0-0.97,0-1.84,0-2.77c1.01,0,1.94,0,3,0c0,0.87,0,1.76,0,2.74
		c1.09,0,2.05,0,3.12,0c0,1.57,0,3.06,0,4.64c3.54,0,6.98,0,10.53,0c0,0.93,0,1.76,0,2.7c0.8,0,1.49,0,2.25,0
		C37.37,22.98,37.37,27.1,37.37,31.3z"/>
</g>
</svg>
